<svg width="1440" height="810" viewBox="0 0 1440 810" fill="none" xmlns="http://www.w3.org/2000/svg">
<circle cx="186" cy="636" r="6" fill="#E8EDF3"/>
<circle cx="186" cy="660" r="6" fill="#E8EDF3"/>
<circle cx="186" cy="684" r="6" fill="#E8EDF3"/>
<circle cx="186" cy="708" r="6" fill="#E8EDF3"/>
<circle cx="186" cy="732" r="6" fill="#E8EDF3"/>
<circle cx="186" cy="756" r="6" fill="#E8EDF3"/>
<circle cx="186" cy="780" r="6" fill="#E8EDF3"/>
<circle cx="186" cy="804" r="6" fill="#E8EDF3"/>
<circle cx="206" cy="636" r="6" fill="#E8EDF3"/>
<circle cx="206" cy="660" r="6" fill="#E8EDF3"/>
<circle cx="206" cy="684" r="6" fill="#E8EDF3"/>
<circle cx="206" cy="708" r="6" fill="#E8EDF3"/>
<circle cx="206" cy="732" r="6" fill="#E8EDF3"/>
<circle cx="206" cy="756" r="6" fill="#E8EDF3"/>
<circle cx="206" cy="780" r="6" fill="#E8EDF3"/>
<circle cx="206" cy="804" r="6" fill="#E8EDF3"/>
<circle cx="226" cy="636" r="6" fill="#E8EDF3"/>
<circle cx="226" cy="660" r="6" fill="#E8EDF3"/>
<circle cx="226" cy="684" r="6" fill="#E8EDF3"/>
<circle cx="226" cy="708" r="6" fill="#E8EDF3"/>
<circle cx="226" cy="732" r="6" fill="#E8EDF3"/>
<circle cx="226" cy="756" r="6" fill="#E8EDF3"/>
<circle cx="226" cy="780" r="6" fill="#E8EDF3"/>
<circle cx="226" cy="804" r="6" fill="#E8EDF3"/>
<circle cx="246" cy="636" r="6" fill="#E8EDF3"/>
<circle cx="246" cy="660" r="6" fill="#E8EDF3"/>
<circle cx="246" cy="684" r="6" fill="#E8EDF3"/>
<circle cx="246" cy="708" r="6" fill="#E8EDF3"/>
<circle cx="246" cy="732" r="6" fill="#E8EDF3"/>
<circle cx="246" cy="756" r="6" fill="#E8EDF3"/>
<circle cx="246" cy="780" r="6" fill="#E8EDF3"/>
<circle cx="246" cy="804" r="6" fill="#E8EDF3"/>
<circle cx="266" cy="636" r="6" fill="#E8EDF3"/>
<circle cx="266" cy="660" r="6" fill="#E8EDF3"/>
<circle cx="266" cy="684" r="6" fill="#E8EDF3"/>
<circle cx="266" cy="708" r="6" fill="#E8EDF3"/>
<circle cx="266" cy="732" r="6" fill="#E8EDF3"/>
<circle cx="266" cy="756" r="6" fill="#E8EDF3"/>
<circle cx="266" cy="780" r="6" fill="#E8EDF3"/>
<circle cx="266" cy="804" r="6" fill="#E8EDF3"/>
<circle cx="286" cy="636" r="6" fill="#E8EDF3"/>
<circle cx="286" cy="660" r="6" fill="#E8EDF3"/>
<circle cx="286" cy="684" r="6" fill="#E8EDF3"/>
<circle cx="286" cy="708" r="6" fill="#E8EDF3"/>
<circle cx="286" cy="732" r="6" fill="#E8EDF3"/>
<circle cx="286" cy="756" r="6" fill="#E8EDF3"/>
<circle cx="286" cy="780" r="6" fill="#E8EDF3"/>
<circle cx="286" cy="804" r="6" fill="#E8EDF3"/>
<circle cx="306" cy="636" r="6" fill="#E8EDF3"/>
<circle cx="306" cy="660" r="6" fill="#E8EDF3"/>
<circle cx="306" cy="684" r="6" fill="#E8EDF3"/>
<circle cx="306" cy="708" r="6" fill="#E8EDF3"/>
<circle cx="306" cy="732" r="6" fill="#E8EDF3"/>
<circle cx="306" cy="756" r="6" fill="#E8EDF3"/>
<circle cx="306" cy="780" r="6" fill="#E8EDF3"/>
<circle cx="306" cy="804" r="6" fill="#E8EDF3"/>
<circle cx="326" cy="636" r="6" fill="#E8EDF3"/>
<circle cx="326" cy="660" r="6" fill="#E8EDF3"/>
<circle cx="326" cy="684" r="6" fill="#E8EDF3"/>
<circle cx="326" cy="708" r="6" fill="#E8EDF3"/>
<circle cx="326" cy="732" r="6" fill="#E8EDF3"/>
<circle cx="326" cy="756" r="6" fill="#E8EDF3"/>
<circle cx="326" cy="780" r="6" fill="#E8EDF3"/>
<circle cx="326" cy="804" r="6" fill="#E8EDF3"/>
<circle cx="346" cy="636" r="6" fill="#E8EDF3"/>
<circle cx="346" cy="660" r="6" fill="#E8EDF3"/>
<circle cx="346" cy="684" r="6" fill="#E8EDF3"/>
<circle cx="346" cy="708" r="6" fill="#E8EDF3"/>
<circle cx="346" cy="732" r="6" fill="#E8EDF3"/>
<circle cx="346" cy="756" r="6" fill="#E8EDF3"/>
<circle cx="346" cy="780" r="6" fill="#E8EDF3"/>
<circle cx="346" cy="804" r="6" fill="#E8EDF3"/>
<circle cx="366" cy="636" r="6" fill="#E8EDF3"/>
<circle cx="366" cy="660" r="6" fill="#E8EDF3"/>
<circle cx="366" cy="684" r="6" fill="#E8EDF3"/>
<circle cx="366" cy="708" r="6" fill="#E8EDF3"/>
<circle cx="366" cy="732" r="6" fill="#E8EDF3"/>
<circle cx="386" cy="636" r="6" fill="#E8EDF3"/>
<circle cx="386" cy="660" r="6" fill="#E8EDF3"/>
<circle cx="386" cy="684" r="6" fill="#E8EDF3"/>
<circle cx="386" cy="708" r="6" fill="#E8EDF3"/>
<circle cx="386" cy="732" r="6" fill="#E8EDF3"/>
<circle cx="406" cy="636" r="6" fill="#E8EDF3"/>
<circle cx="406" cy="660" r="6" fill="#E8EDF3"/>
<circle cx="406" cy="684" r="6" fill="#E8EDF3"/>
<circle cx="406" cy="708" r="6" fill="#E8EDF3"/>
<circle cx="406" cy="732" r="6" fill="#E8EDF3"/>
<path d="M1332 750L0 610L0.0475473 0H1440V679L1332 750Z" fill="url(#paint0_linear_1_351)"/>
<defs>
<linearGradient id="paint0_linear_1_351" x1="720" y1="0" x2="720" y2="750" gradientUnits="userSpaceOnUse">
<stop stop-color="#03062F"/>
<stop offset="1" stop-color="#180B74"/>
</linearGradient>
</defs>
</svg>
